<?xml version="1.0" standalone="no"?>
<!DOCTYPE svg PUBLIC "-//W3C//DTD SVG 20010904//EN"
 "http://www.w3.org/TR/2001/REC-SVG-20010904/DTD/svg10.dtd">
<svg version="1.0" xmlns="http://www.w3.org/2000/svg"
 width="735.000000pt" height="550.000000pt" viewBox="0 0 735.000000 550.000000"
 preserveAspectRatio="xMidYMid meet">

<g transform="translate(0.000000,550.000000) scale(0.100000,-0.100000)"
fill="#000000" stroke="none">
<path d="M0 2750 l0 -2750 3675 0 3675 0 0 2750 0 2750 -3675 0 -3675 0 0
-2750z m5329 2461 c9 -6 10 -10 2 -16 -16 -9 -44 2 -36 15 8 12 16 12 34 1z
m75 -32 c-3 -5 -15 -9 -27 -8 -12 0 -16 3 -9 6 6 2 12 12 12 20 0 13 3 13 15
3 8 -7 12 -16 9 -21z m176 27 c0 -11 -19 -15 -25 -6 -3 5 1 10 9 10 9 0 16 -2
16 -4z m-360 -26 c0 -5 -6 -10 -14 -10 -8 0 -18 5 -21 10 -3 6 3 10 14 10 12
0 21 -4 21 -10z m-86 -16 c114 -6 138 -10 152 -25 15 -16 15 -19 2 -19 -9 0
-21 -13 -28 -30 -14 -34 -30 -31 -30 6 0 13 -3 24 -7 24 -14 -1 -43 -27 -43
-38 0 -6 -6 -12 -12 -15 -10 -3 -10 -7 0 -19 15 -18 1 -33 -22 -25 -19 8 -50
71 -36 75 16 6 12 22 -5 22 -9 0 -30 -7 -48 -17 -31 -16 -32 -16 -9 -26 23
-10 30 -27 12 -27 -6 0 -8 -11 -4 -27 4 -16 3 -25 -1 -21 -11 10 -65 -23 -65
-39 0 -8 -7 -16 -15 -19 -8 -4 -13 -10 -10 -15 3 -4 12 -6 19 -3 19 7 25 -16
19 -64 -6 -44 -29 -59 -49 -33 -6 8 -16 11 -23 7 -9 -6 -9 -11 1 -24 11 -13
11 -14 -2 -10 -8 2 -17 15 -20 29 l-6 24 -12 -22 c-7 -13 -18 -20 -26 -17 -8
3 -17 0 -21 -5 -10 -17 -27 -2 -20 19 10 32 -34 38 -60 8 -11 -13 -26 -23 -33
-20 -13 4 -82 -27 -82 -37 0 -4 5 -12 12 -19 8 -8 8 -15 -1 -25 -9 -11 -8 -21
4 -43 8 -16 15 -35 15 -41 0 -7 9 -18 20 -25 11 -7 20 -20 20 -30 0 -9 4 -19
9 -22 5 -3 11 -15 14 -26 4 -17 2 -18 -14 -9 -10 5 -19 14 -19 19 0 16 -52 70
-68 70 -22 0 -52 30 -52 52 0 10 -7 18 -15 18 -25 0 -17 29 10 36 18 4 25 13
25 30 0 15 6 24 15 24 17 0 20 17 4 22 -7 2 -3 18 11 43 32 59 47 72 116 107
38 19 65 40 68 52 4 16 8 18 18 8 15 -15 29 -16 26 -1 -2 6 3 14 10 16 6 3 12
-2 12 -11 0 -18 4 -19 47 -10 18 4 36 17 47 34 16 28 16 29 -4 40 -27 14 -26
30 2 27 14 -1 23 4 26 16 3 13 -3 17 -22 17 -25 0 -33 10 -19 24 4 3 12 4 19
2 7 -3 74 -8 148 -12z m-254 -87 c0 -7 -9 -18 -20 -25 -24 -15 -27 0 -4 22 19
19 24 20 24 3z m340 -23 c0 -9 -7 -14 -17 -12 -25 5 -28 28 -4 28 12 0 21 -6
21 -16z m114 -605 c-4 -7 40 -4 89 6 15 3 18 -1 13 -18 -3 -11 -1 -26 4 -32 5
-6 5 -17 -1 -25 -8 -13 -10 -13 -18 -1 -8 12 -12 9 -22 -15 -49 -117 -32 -105
-152 -109 -32 -1 -63 -7 -70 -15 -10 -10 -6 -12 19 -7 45 8 102 -3 109 -21 3
-8 -4 -25 -16 -39 -13 -12 -20 -25 -18 -27 8 -9 162 103 178 128 8 14 22 27
31 30 8 2 3 4 -12 5 -35 1 -36 17 -2 25 34 9 118 -38 110 -61 -3 -8 -6 -23 -6
-34 0 -10 -6 -19 -14 -19 -23 0 4 -57 33 -70 24 -11 24 -13 8 -24 -19 -14 -22
-52 -7 -76 5 -8 10 -10 11 -5 1 6 4 -6 8 -25 6 -35 6 -35 -39 -46 -25 -6 -50
-7 -56 -3 -5 5 -68 7 -140 5 -99 -3 -140 -8 -179 -24 -45 -18 -50 -23 -51 -51
0 -21 -8 -37 -22 -47 -12 -8 -22 -18 -22 -22 0 -4 28 -16 63 -26 34 -10 73
-27 86 -37 34 -27 111 -26 118 1 4 16 14 20 47 20 29 0 37 -3 26 -10 -16 -10
-13 -17 10 -20 42 -6 72 3 103 30 28 24 45 30 96 33 50 4 59 2 50 -9 -13 -15
-4 -34 17 -34 8 0 14 -4 14 -10 0 -5 16 -26 35 -47 34 -36 37 -53 9 -53 -8 0
-14 -5 -14 -12 0 -6 -11 -25 -24 -43 -13 -17 -30 -50 -37 -73 -7 -23 -17 -42
-22 -42 -6 0 -8 -24 -4 -64 4 -39 2 -67 -5 -74 -7 -7 -7 -19 0 -39 5 -16 8
-46 6 -67 -3 -20 2 -71 11 -112 16 -77 10 -168 -17 -239 -21 -59 -70 -155 -78
-155 -9 0 -23 -39 -21 -57 2 -16 -25 -17 -34 -3 -4 6 -1 18 7 28 12 15 11 15
-14 -1 -30 -19 -42 -22 -33 -8 3 5 1 12 -5 16 -6 3 -10 -4 -10 -18 0 -31 -25
-55 -34 -32 -7 19 -26 20 -26 0 0 -10 -10 -15 -30 -15 -21 0 -28 -4 -24 -14 3
-9 -3 -20 -15 -28 -12 -7 -21 -20 -21 -28 0 -8 -7 -24 -15 -34 -13 -18 -16
-18 -40 -2 -14 9 -30 14 -36 11 -15 -10 -39 15 -39 41 0 17 -4 22 -15 18 -8
-4 -15 -1 -15 5 0 8 -6 7 -20 -1 -11 -7 -20 -20 -20 -30 0 -9 -5 -20 -10 -23
-6 -3 -7 -17 -4 -30 7 -29 -4 -54 -16 -35 -4 7 -10 -3 -14 -25 -5 -23 -3 -42
5 -51 19 -23 29 -16 29 18 0 38 12 30 15 -9 1 -16 3 -33 3 -39 1 -6 16 -14 32
-17 29 -6 44 -37 18 -37 -8 0 -9 -3 -2 -10 5 -5 24 -6 45 -1 19 4 50 6 67 3
18 -2 39 1 47 8 18 15 50 5 96 -31 20 -16 42 -29 47 -29 24 0 21 -21 -4 -30
l-26 -10 26 -25 c15 -14 34 -25 43 -25 14 0 13 -4 -5 -23 -29 -30 -28 -37 4
-37 15 0 32 -7 38 -15 9 -13 18 -10 58 16 26 17 54 29 64 27 11 -2 -13 -26
-74 -75 -77 -62 -231 -217 -240 -242 -2 -5 4 -11 13 -14 9 -4 15 -1 15 7 0 8
14 20 30 28 17 7 30 16 30 20 0 5 5 8 11 8 5 0 7 -4 4 -10 -3 -5 3 -10 14 -10
12 0 21 5 21 11 0 5 4 8 8 5 5 -3 21 4 38 15 16 10 40 19 53 19 27 0 25 -2
-84 -99 -16 -15 -66 -67 -110 -116 -44 -50 -104 -117 -135 -150 -66 -72 -123
-137 -210 -238 -36 -42 -70 -74 -77 -72 -7 3 -10 -2 -6 -12 5 -11 2 -15 -8
-11 -8 2 -21 -3 -30 -12 -14 -15 -14 -18 0 -36 30 -35 69 -54 116 -54 35 0 50
-5 66 -24 14 -16 36 -26 68 -30 49 -6 83 -31 87 -64 1 -9 5 -25 9 -34 8 -19
-9 -25 -20 -8 -3 6 -14 10 -24 10 -10 0 -27 12 -37 28 -18 27 -43 51 -56 52
-4 0 -8 -12 -10 -27 -4 -35 -30 -41 -58 -13 -14 14 -25 18 -33 12 -16 -12 -63
8 -100 42 -33 31 -63 34 -70 6 -6 -22 -36 -26 -65 -10 -15 8 -87 24 -167 36
-16 2 -47 7 -68 10 -28 5 -43 2 -57 -11 -19 -17 -22 -17 -65 5 -27 14 -61 45
-85 77 -43 56 -78 70 -87 33 -3 -11 -9 -20 -14 -20 -12 0 -102 48 -159 85 -60
39 -87 54 -119 63 -46 13 -176 106 -205 146 l-28 38 -66 -6 c-57 -5 -72 -3
-100 14 -39 24 -58 25 -66 5 -6 -17 -36 -21 -36 -4 0 6 -12 10 -27 8 -28 -2
-59 8 -117 37 -16 8 -37 14 -47 14 -10 0 -20 4 -24 10 -3 5 -13 6 -21 3 -9 -3
-21 3 -30 16 -11 15 -22 19 -38 15 -19 -4 -28 1 -46 32 -21 34 -24 35 -31 17
-4 -12 -12 -24 -18 -27 -5 -4 -13 -28 -16 -54 -4 -26 -15 -74 -25 -107 -11
-33 -26 -100 -35 -150 -8 -49 -21 -110 -29 -135 -13 -44 -15 -45 -49 -42 -42
4 -40 10 -62 -152 -15 -111 -20 -338 -9 -395 5 -25 13 -33 35 -38 16 -3 34
-12 40 -19 7 -8 30 -14 55 -14 76 0 361 -47 370 -61 3 -5 -8 -6 -23 -4 -101
19 -128 23 -132 19 -2 -2 4 -13 14 -24 25 -27 5 -26 -54 3 -58 30 -126 46
-213 51 -76 4 -87 -7 -30 -30 20 -9 66 -28 102 -44 36 -15 80 -34 98 -40 40
-16 42 -34 3 -25 -17 3 -50 8 -73 9 -46 3 -76 15 -101 40 -8 8 -36 29 -63 45
-40 26 -58 31 -110 31 -34 0 -69 -3 -78 -6 -28 -11 -17 -31 24 -48 40 -16 51
-31 28 -39 -10 -3 -10 -10 1 -28 25 -41 61 -114 61 -123 0 -5 11 -23 24 -40
13 -17 26 -42 30 -56 5 -17 -1 -12 -18 15 -13 22 -33 52 -45 66 -11 14 -35 53
-52 85 -35 63 -89 134 -103 134 -5 0 -3 -7 5 -16 7 -8 14 -25 15 -37 2 -12 6
-37 10 -55 6 -30 4 -32 -20 -32 -16 0 -29 7 -33 18 -9 25 -44 62 -59 62 -15 0
-36 34 -28 43 3 3 3 11 -1 18 -6 8 -12 4 -21 -12 -10 -18 -13 -20 -14 -7 0 20
-48 48 -80 48 -12 0 -24 9 -29 23 -5 12 -12 21 -17 21 -18 -3 -40 10 -78 44
l-39 35 -17 -23 -18 -23 -10 44 c-28 116 -60 169 -104 169 -23 0 -28 -5 -34
-35 -3 -20 -11 -34 -17 -32 -8 2 -39 79 -64 160 -3 9 -14 17 -24 17 -10 0 -21
5 -24 10 -9 14 -54 12 -70 -2 -7 -7 -27 -24 -44 -38 -21 -17 -27 -27 -18 -32
8 -5 7 -8 -5 -8 -10 0 -22 10 -29 21 -9 19 -17 21 -57 16 -26 -4 -59 -9 -74
-13 -22 -5 -28 -3 -28 10 0 9 -6 16 -12 17 -7 0 -26 3 -43 5 -16 3 -45 6 -63
7 -18 1 -36 7 -40 13 -4 6 -20 14 -37 17 -16 3 -24 4 -18 1 7 -3 13 -10 13
-15 0 -5 -11 -4 -25 3 -17 8 -36 8 -67 0 -95 -24 -96 -24 -114 3 -12 19 -19
23 -25 14 -5 -8 -11 2 -18 27 -13 47 -29 71 -100 152 -54 62 -81 77 -81 45 0
-10 -5 -25 -11 -33 -8 -12 -9 -9 -5 13 5 21 3 27 -11 27 -9 0 -26 11 -38 25
-14 19 -41 31 -99 46 -96 25 -144 49 -261 135 -114 83 -170 132 -161 141 4 4
17 -4 29 -17 46 -51 55 -55 77 -29 55 65 98 200 101 314 2 108 2 105 -24 105
-42 0 -119 28 -146 53 -42 39 -84 51 -125 37 -71 -23 -126 29 -106 101 13 46
45 63 99 54 22 -4 43 -11 47 -16 3 -5 26 -9 51 -9 26 0 86 -5 135 -11 49 -7
91 -9 94 -6 11 10 -30 45 -71 60 -22 9 -79 18 -128 20 -48 3 -94 10 -102 17
-10 8 -15 30 -15 62 0 43 4 54 31 79 38 35 62 36 141 4 61 -25 132 -33 142
-16 3 4 -11 25 -31 45 -34 33 -41 36 -79 32 -38 -4 -43 -2 -48 20 -10 40 27
110 66 123 l33 12 -25 19 -25 20 25 0 c24 1 24 2 4 10 -28 11 -34 45 -33 195
0 66 -4 133 -11 149 -9 26 -9 27 5 16 12 -10 15 -10 15 1 0 30 -13 58 -23 52
-7 -4 -8 0 -4 11 6 16 -12 93 -72 301 -17 60 -74 315 -88 397 -5 25 2 30 173
113 99 48 229 107 289 131 139 54 465 148 475 137 4 -4 17 -64 29 -132 26
-145 108 -430 110 -381 1 25 69 25 93 0 10 -11 23 -20 28 -20 4 0 19 -17 31
-37 13 -21 39 -55 59 -75 19 -21 35 -42 35 -46 0 -5 7 -15 15 -24 37 -38 58
-67 53 -72 -4 -3 -1 -6 6 -6 6 0 26 -16 44 -36 18 -20 47 -51 64 -70 18 -18
33 -38 33 -44 0 -5 6 -10 14 -10 8 0 18 -9 21 -20 3 -11 10 -20 14 -20 4 0 26
-18 49 -39 23 -22 52 -43 65 -47 12 -3 50 -26 84 -50 34 -24 68 -44 76 -44 9
0 17 -4 19 -8 2 -4 41 -37 88 -72 47 -36 87 -68 88 -72 2 -5 9 -8 16 -8 7 0
25 -13 39 -30 15 -16 33 -30 41 -30 7 0 38 -24 68 -52 31 -29 87 -82 126 -118
39 -36 71 -71 71 -77 1 -7 6 -13 11 -13 6 0 10 -6 10 -12 1 -18 46 -68 62 -68
7 0 19 -9 26 -20 7 -11 21 -20 32 -20 11 0 20 -4 20 -9 0 -18 75 -81 97 -81
15 0 27 -11 39 -36 12 -24 25 -37 45 -41 16 -3 34 -12 40 -19 6 -8 18 -14 25
-14 8 0 14 -4 14 -8 0 -4 13 -16 30 -25 16 -10 35 -23 42 -30 17 -17 138 -77
155 -77 7 0 13 -7 13 -15 0 -18 4 -18 48 -6 20 6 32 6 32 0 0 -5 -9 -9 -19 -9
-14 0 -18 -5 -14 -20 3 -11 12 -20 19 -20 8 0 14 -9 14 -20 0 -17 7 -20 39
-20 39 0 40 -1 44 -37 3 -33 5 -35 12 -15 11 32 28 22 40 -22 6 -20 15 -33 19
-29 5 4 6 0 3 -9 -3 -10 -2 -20 3 -23 17 -11 11 -27 -7 -21 -10 4 -14 4 -10 0
4 -4 1 -14 -6 -22 -10 -13 -8 -14 16 -8 20 5 27 3 27 -8 0 -7 9 -16 20 -19 17
-4 20 -2 15 14 -7 22 33 46 59 36 25 -10 19 -27 -9 -27 -16 0 -25 -6 -25 -15
0 -8 5 -15 12 -15 6 0 8 -3 5 -7 -4 -3 0 -15 10 -25 15 -16 15 -18 0 -18 -13
0 -14 -5 -8 -22 6 -15 16 -22 30 -21 12 2 21 -3 21 -11 0 -12 53 -44 84 -51 6
-1 31 -12 56 -23 25 -12 51 -22 58 -22 14 0 57 26 87 53 26 23 260 170 328
205 29 15 71 33 94 41 23 8 40 18 37 22 -2 4 -18 3 -35 -3 -16 -6 -33 -8 -36
-4 -4 3 1 6 10 6 21 0 22 16 2 24 -22 8 -21 86 1 86 10 0 32 16 50 35 27 27
34 42 34 74 0 42 17 91 32 91 4 0 8 9 8 20 0 22 16 27 23 8 2 -7 2 11 -1 40
-3 35 -1 52 7 52 6 0 11 9 11 20 0 13 -7 20 -20 20 -18 0 -20 7 -20 70 0 39 4
70 9 70 4 0 6 -22 3 -50 -3 -31 -1 -50 6 -50 19 0 41 295 23 313 -6 6 -11 27
-12 46 -1 47 -13 86 -25 84 -14 -2 -8 301 6 305 5 2 10 13 10 23 0 13 10 24
30 30 34 12 41 44 11 54 -32 10 -44 31 -31 54 8 16 15 19 29 12 14 -8 20 -4
30 25 7 19 9 43 6 55 -4 11 -3 44 1 72 l7 52 15 -60 c10 -43 11 -60 3 -63 -6
-2 -11 -12 -11 -23 0 -18 9 -23 28 -16 4 1 5 54 3 118 -2 98 -1 118 13 126 33
18 19 161 -19 200 -24 24 -42 75 -51 144 -5 36 -1 52 20 89 25 43 26 51 26
206 0 153 1 163 26 213 20 40 30 51 43 45 67 -27 113 -32 169 -18 31 8 70 24
87 36 16 12 45 25 65 29 47 9 180 8 174 -2z m210 -84 c-4 -8 -8 -15 -10 -15
-2 0 -4 7 -4 15 0 8 4 15 10 15 5 0 7 -7 4 -15z m1031 -365 c-3 -5 -11 -10
-17 -10 -6 0 -19 -7 -29 -16 -10 -9 -24 -14 -31 -12 -7 3 5 14 27 26 44 23 59
27 50 12z m-1063 -81 c14 -11 34 -19 45 -20 14 0 14 -2 3 -6 -8 -3 -19 -12
-23 -19 -4 -8 -20 -14 -35 -14 -21 0 -23 -3 -12 -10 17 -10 20 -9 -70 -37 -90
-29 -190 -9 -190 38 0 16 92 82 123 89 47 11 128 0 159 -21z m163 -24 c25 -21
28 -27 15 -35 -8 -5 -28 -10 -45 -10 -16 0 -39 -2 -50 -4 -11 -2 -14 -1 -7 1
6 3 12 17 12 32 0 49 28 55 75 16z m941 -21 c4 -14 2 -30 -5 -37 -8 -8 -11 -6
-11 10 0 12 -3 28 -6 37 -3 9 -1 16 5 16 6 0 14 -12 17 -26z m-69 -61 c-9 -9
-20 -13 -24 -9 -4 4 -1 11 7 16 25 16 35 11 17 -7z m-152 -142 c-3 -12 -11
-21 -16 -21 -10 0 -12 43 -2 54 12 12 25 -11 18 -33z m79 -138 c-14 -10 -20
-11 -23 -2 -2 7 5 18 15 26 14 10 20 11 23 2 2 -7 -5 -18 -15 -26z m-62 -45
c-15 -15 -26 -4 -18 18 5 13 9 15 18 6 9 -9 9 -15 0 -24z m53 -35 c-14 -13
-18 -14 -25 -3 -10 16 -3 33 10 25 5 -3 12 0 16 7 6 9 9 9 12 0 2 -6 -4 -19
-13 -29z m-48 -13 c2 -8 -1 -22 -7 -30 -8 -13 -12 -11 -30 8 -12 12 -18 27
-15 33 10 15 49 7 52 -11z m-527 -890 c-6 -11 -17 -20 -25 -20 -8 0 -20 -9
-27 -20 -7 -11 -16 -20 -20 -20 -4 0 -30 -14 -57 -32 -66 -40 -78 -29 -16 14
26 18 66 47 89 65 48 38 72 43 56 13z m5 -92 c-2 -23 -79 -71 -145 -90 -19 -6
-38 -15 -41 -20 -4 -7 -13 -7 -24 0 -15 8 -3 17 71 58 49 27 98 54 109 61 29
16 32 15 30 -9z m770 -12 c19 -8 35 -19 35 -24 0 -6 -49 -13 -109 -17 -84 -5
-117 -4 -140 6 -17 8 -31 17 -31 21 0 9 38 21 48 14 6 -3 149 8 160 13 1 0 18
-6 37 -13z m-815 -71 c0 -2 -10 -9 -22 -15 -22 -11 -22 -10 -4 4 21 17 26 19
26 11z m940 -5 c-14 -4 -41 -8 -60 -8 -32 0 -33 1 -10 8 14 4 41 8 60 8 32 0
33 -1 10 -8z m-904 -35 c-85 -58 -237 -122 -200 -85 13 13 215 110 228 110 5
0 -8 -11 -28 -25z m698 -9 c-103 -35 -313 -136 -335 -162 -6 -8 -16 -14 -21
-14 -5 0 -18 -10 -28 -22 -10 -13 -22 -20 -26 -16 -4 4 -1 14 5 22 9 10 -8 7
-51 -10 -34 -14 -74 -29 -88 -34 -14 -4 -47 -20 -75 -34 -27 -14 -56 -26 -64
-26 -7 0 -35 -11 -63 -25 -69 -35 -71 -31 -8 15 49 35 182 93 370 161 36 12
80 32 98 42 30 18 31 20 15 34 -16 13 -15 13 13 8 22 -4 48 2 90 21 76 34 201
73 239 73 19 0 -9 -12 -71 -33z m-789 16 c-13 -11 -65 -33 -65 -27 0 2 12 11
28 19 30 17 52 21 37 8z m925 -40 c0 -5 -12 -15 -27 -23 -16 -8 -47 -27 -71
-43 -24 -15 -45 -26 -48 -24 -4 5 42 38 106 76 42 25 40 24 40 14z m-452 -43
c2 -10 -10 -22 -32 -33 -42 -20 -71 -21 -36 -1 44 25 -2 17 -89 -15 -45 -16
-81 -25 -81 -20 0 21 174 91 215 87 11 -1 21 -9 23 -18z m-131 -183 c-13 -14
-28 -26 -33 -26 -4 0 5 13 21 30 16 16 30 28 32 26 2 -2 -7 -16 -20 -30z m-67
-71 c-7 -9 -15 -13 -19 -10 -3 3 1 10 9 15 21 14 24 12 10 -5z m658 8 c-10 -2
-28 -2 -40 0 -13 2 -5 4 17 4 22 1 32 -1 23 -4z m115 0 c-13 -2 -33 -2 -45 0
-13 2 -3 4 22 4 25 0 35 -2 23 -4z m-1168 -43 c3 -5 2 -10 -4 -10 -5 0 -13 5
-16 10 -3 6 -2 10 4 10 5 0 13 -4 16 -10z m-30 -20 c3 -5 2 -10 -4 -10 -5 0
-13 5 -16 10 -3 6 -2 10 4 10 5 0 13 -4 16 -10z m363 -10 c-7 -10 -14 -17 -17
-15 -4 4 18 35 25 35 2 0 -1 -9 -8 -20z m-268 6 c0 -2 -8 -10 -17 -17 -16 -13
-17 -12 -4 4 13 16 21 21 21 13z m184 -94 c-34 -31 -63 -62 -65 -68 -5 -13
-99 -25 -99 -13 0 5 8 9 19 9 10 0 29 13 42 28 13 16 31 32 39 35 8 4 29 16
45 27 30 20 65 38 75 39 3 1 -23 -25 -56 -57z m-149 29 c3 -5 1 -12 -5 -16 -5
-3 -10 1 -10 9 0 18 6 21 15 7z m-89 -20 c0 -11 -5 -17 -13 -14 -17 6 -17 20
0 26 6 3 12 6 12 6 1 1 1 -7 1 -18z m-50 -27 c-5 -12 -1 -14 16 -9 18 6 19 5
7 -8 -10 -11 -18 -12 -26 -5 -16 13 -17 38 -2 38 6 0 8 -7 5 -16z m-5119 -14
c22 -26 18 -85 -8 -111 -25 -25 -106 -27 -124 -2 -11 14 -16 15 -28 5 -13 -11
-19 -9 -36 9 -17 18 -30 69 -18 69 1 0 29 11 62 25 75 31 129 32 152 5z m5293
14 c0 -3 -7 -12 -15 -20 -12 -13 -15 -13 -15 -1 0 7 3 17 7 20 8 8 23 9 23 1z
m978 -11 c-32 -2 -86 -2 -120 0 -35 2 -9 3 57 3 66 0 94 -1 63 -3z m-189 -7
c-2 -2 -26 -6 -53 -9 -30 -3 -43 -1 -35 4 13 8 97 13 88 5z m-6327 -47 c-3
-20 -10 -29 -23 -29 -13 0 -17 5 -12 17 5 12 2 15 -10 10 -9 -3 -17 -3 -17 1
0 15 19 27 43 28 20 1 23 -2 19 -27z m5314 -7 c-8 -9 -18 -13 -22 -10 -3 4 3
15 13 25 10 10 20 15 22 10 2 -5 -4 -16 -13 -25z m-1809 -18 c-3 -3 -12 -4
-19 -1 -8 3 -5 6 6 6 11 1 17 -2 13 -5z m1825 -26 c-12 -11 -74 -46 -132 -73
-30 -14 -62 -33 -72 -42 -10 -9 -18 -11 -18 -5 0 6 16 22 36 36 20 13 42 35
48 48 6 13 22 24 34 26 12 2 22 7 22 10 0 4 20 7 44 7 25 0 42 -3 38 -7z
m-1711 -107 c22 -24 37 -37 33 -28 -8 21 13 22 39 3 16 -13 16 -14 1 -20 -16
-6 -15 -8 2 -21 17 -13 15 -14 -27 -13 -59 1 -104 36 -112 89 -7 50 14 47 64
-10z m-81 -21 c0 -5 -5 -10 -11 -10 -5 0 -7 5 -4 10 3 6 8 10 11 10 2 0 4 -4
4 -10z m-3406 -46 c5 -14 4 -15 -9 -4 -17 14 -19 20 -6 20 5 0 12 -7 15 -16z
m5654 -84 c17 0 32 -3 32 -7 0 -5 -40 -8 -90 -8 -49 0 -90 3 -90 6 0 16 20 20
65 15 28 -3 65 -6 83 -6z m95 -17 c-7 -2 -19 -2 -25 0 -7 3 -2 5 12 5 14 0 19
-2 13 -5z m-289 -18 c-4 -8 -14 -15 -23 -15 -14 1 -13 3 3 15 25 19 27 19 20
0z m-52 -37 c-8 -8 -9 -15 -1 -25 7 -8 8 -13 1 -13 -16 0 -23 31 -11 47 7 7
14 11 17 8 3 -3 0 -11 -6 -17z m-22 -45 c0 -3 -6 -3 -12 -1 -7 2 -26 -9 -43
-25 -27 -26 -28 -28 -7 -22 17 5 22 2 23 -12 1 -17 2 -17 6 0 3 10 10 16 16
13 7 -3 20 -9 30 -12 21 -8 23 -34 2 -34 -8 0 -15 4 -15 9 0 13 -143 7 -147
-6 -6 -18 -54 -66 -60 -60 -6 7 87 98 140 138 33 24 67 30 67 12z m-21 -113
c25 13 28 -2 5 -20 -25 -21 -59 -20 -72 1 -18 29 -5 42 23 23 18 -12 28 -13
44 -4z m87 -30 c1 -22 -2 -40 -7 -40 -5 0 -9 11 -9 25 0 17 -6 25 -17 25 -16
1 -16 2 1 15 28 22 31 19 32 -25z m-203 -20 c4 -17 14 -20 56 -20 47 0 61 -7
45 -23 -3 -3 -17 -2 -30 3 -33 13 -38 -3 -9 -30 43 -41 30 -52 -27 -23 -47 23
-59 25 -142 20 l-90 -5 27 24 c15 13 40 26 55 29 15 3 43 14 62 24 46 24 47
24 53 1z m144 -32 c-3 -8 -6 -5 -6 6 -1 11 2 17 5 13 3 -3 4 -12 1 -19z
m-4787 -38 c0 -5 -4 -10 -10 -10 -5 0 -10 5 -10 10 0 6 5 10 10 10 6 0 10 -4
10 -10z m4753 -15 c-3 -9 -8 -14 -10 -11 -3 3 -2 9 2 15 9 16 15 13 8 -4z
m-200 -69 c50 -22 117 -83 117 -108 0 -16 -11 -10 -52 31 -29 28 -64 54 -78
58 -14 3 -41 14 -60 25 -31 16 -80 25 -80 14 0 -2 16 -27 35 -56 45 -67 45
-83 0 -35 -20 20 -39 35 -42 31 -3 -3 -1 -12 5 -19 13 -16 6 -27 -17 -27 -16
0 -91 68 -91 82 0 14 27 9 40 -7 7 -8 16 -15 21 -15 5 0 9 7 9 15 0 8 -4 15
-10 15 -23 0 -8 19 20 25 16 4 32 10 35 15 5 9 71 -11 148 -44z m-2047 -393
c-2 -9 -8 -19 -14 -21 -14 -4 -15 0 -6 22 8 21 23 20 20 -1z m-214 -193 c18
-11 29 -20 23 -20 -5 0 -23 9 -40 20 -39 26 -25 26 17 0z m-402 -67 c0 -7 -58
36 -66 49 -4 7 9 -1 29 -16 20 -16 37 -30 37 -33z m28 -38 c-3 -3 -9 2 -12 12
-6 14 -5 15 5 6 7 -7 10 -15 7 -18z m-218 -26 c0 -5 -4 -9 -10 -9 -5 0 -10 7
-10 16 0 8 5 12 10 9 6 -3 10 -10 10 -16z"/>
<path d="M4900 3816 c0 -2 7 -6 15 -10 8 -3 15 -1 15 4 0 6 -7 10 -15 10 -8 0
-15 -2 -15 -4z"/>
<path d="M4962 3741 c-11 -7 -11 -9 1 -14 16 -6 27 0 27 15 0 10 -11 10 -28
-1z"/>
<path d="M4795 3465 c0 -19 4 -37 8 -41 4 -4 7 9 7 29 0 20 -3 38 -7 40 -5 3
-8 -10 -8 -28z"/>
<path d="M4803 3350 c0 -36 2 -50 4 -32 2 17 2 47 0 65 -2 17 -4 3 -4 -33z"/>
<path d="M5291 3368 c-5 -13 -6 -27 -4 -31 3 -5 -6 -20 -18 -34 l-24 -26 31
16 c32 17 44 34 44 67 0 29 -19 34 -29 8z"/>
<path d="M5088 3324 c-36 -19 -37 -55 -2 -71 21 -10 33 -8 70 8 25 10 52 19
60 19 8 0 14 3 14 8 0 4 3 17 6 30 6 21 4 22 -57 22 -37 -1 -76 -7 -91 -16z"/>
<path d="M5040 3210 c0 -5 7 -10 15 -10 8 0 15 5 15 10 0 6 -7 10 -15 10 -8 0
-15 -4 -15 -10z"/>
<path d="M4761 3194 c0 -11 3 -14 6 -6 3 7 2 16 -1 19 -3 4 -6 -2 -5 -13z"/>
<path d="M5580 3190 c0 -5 5 -10 10 -10 6 0 10 5 10 10 0 6 -4 10 -10 10 -5 0
-10 -4 -10 -10z"/>
<path d="M5450 3166 l-25 -14 26 -10 c57 -22 42 -38 -69 -75 -59 -20 -124 -39
-145 -43 -21 -3 -63 -15 -95 -25 l-57 -19 45 5 c25 3 79 9 120 14 41 5 104 20
139 35 64 26 141 35 141 16 0 -12 60 -44 68 -36 8 9 -16 82 -33 96 -8 7 -15
18 -15 25 0 32 -63 52 -100 31z"/>
<path d="M5375 3160 c-3 -5 -1 -10 4 -10 6 0 11 5 11 10 0 6 -2 10 -4 10 -3 0
-8 -4 -11 -10z"/>
<path d="M5120 2851 c0 -6 5 -13 10 -16 6 -3 10 1 10 9 0 9 -4 16 -10 16 -5 0
-10 -4 -10 -9z"/>
<path d="M4700 2770 c0 -5 5 -10 10 -10 6 0 10 5 10 10 0 6 -4 10 -10 10 -5 0
-10 -4 -10 -10z"/>
<path d="M5225 2601 c-3 -5 -1 -12 5 -16 5 -3 10 1 10 9 0 18 -6 21 -15 7z"/>
<path d="M5295 2590 c-3 -5 -1 -10 4 -10 6 0 11 5 11 10 0 6 -2 10 -4 10 -3 0
-8 -4 -11 -10z"/>
<path d="M5306 2127 c-24 -15 -63 -46 -88 -69 -10 -10 -22 -18 -26 -18 -15 0
-72 -66 -65 -74 5 -4 3 -6 -2 -4 -6 2 -25 -13 -43 -32 -18 -19 -65 -69 -105
-110 -85 -88 -153 -165 -164 -184 -4 -8 -22 -29 -38 -48 -17 -18 -53 -60 -80
-93 -28 -33 -53 -62 -58 -63 -4 -2 -27 -30 -52 -62 -25 -33 -52 -66 -60 -74
-14 -13 -13 -16 4 -26 36 -19 49 -10 105 73 86 127 114 164 220 295 150 187
221 244 368 296 43 16 47 20 58 66 9 38 17 50 31 50 22 0 39 28 39 64 0 28
-14 32 -44 13z"/>
<path d="M4628 2010 c-7 -24 -3 -38 8 -28 3 4 4 17 2 30 l-3 23 -7 -25z"/>
<path d="M711 1858 c-1 -27 3 -48 7 -48 4 0 6 17 4 38 -5 58 -10 62 -11 10z"/>
<path d="M4542 1850 c0 -19 2 -27 5 -17 2 9 2 25 0 35 -3 9 -5 1 -5 -18z"/>
<path d="M3740 1645 c7 -9 15 -13 17 -11 7 7 -7 26 -19 26 -6 0 -6 -6 2 -15z"/>
<path d="M4896 1298 c-25 -14 -97 -90 -92 -95 2 -3 14 0 25 7 12 6 27 10 34 9
27 -3 39 2 34 15 -3 8 3 26 14 39 29 38 23 48 -15 25z"/>
<path d="M1718 903 c6 -2 18 -2 25 0 6 3 1 5 -13 5 -14 0 -19 -2 -12 -5z"/>
<path d="M5860 2440 c0 -5 7 -7 15 -4 8 4 15 8 15 10 0 2 -7 4 -15 4 -8 0 -15
-4 -15 -10z"/>
</g>
</svg>
